<svg width="48" height="48" viewBox="0 0 48 48" fill="none" xmlns="http://www.w3.org/2000/svg">
<g filter="url(#filter0_b_269_33622)">
<rect width="48" height="48" rx="24" fill="#EA4D89" fill-opacity="0.78"/>
<path fill-rule="evenodd" clip-rule="evenodd" d="M14.0965 25.4006C14.5871 28.9004 16.8891 31.8193 20.0244 33.1789C20.1616 30.3582 20.744 27.6481 21.7061 25.1093C20.6805 24.9134 19.6185 24.8105 18.5304 24.8105C16.9902 24.8105 15.5025 25.0167 14.0965 25.4006ZM21.5052 33.6865C22.3025 33.8912 23.1381 34 23.9992 34C26.8695 34 29.4573 32.7907 31.281 30.8539C29.2904 28.3254 26.4634 26.4055 23.178 25.4606C22.1781 28.0394 21.5954 30.8055 21.5052 33.6865ZM32.245 29.6591C33.3516 28.0499 33.9992 26.1006 33.9992 24C33.9992 23.824 33.9947 23.6491 33.9857 23.4754C32.921 23.6682 31.8222 23.769 30.6992 23.769C28.5001 23.769 26.3949 23.3824 24.4565 22.6763C24.2123 23.1334 23.9819 23.598 23.7657 24.0698C27.1608 25.0832 30.1078 27.0569 32.245 29.6591ZM33.7962 21.9851C33.2764 19.4444 31.7931 17.2547 29.7447 15.8143C27.9862 17.4594 26.4598 19.3215 25.2143 21.3538C26.9222 21.9454 28.7695 22.269 30.6992 22.269C31.7596 22.269 32.7951 22.1713 33.7962 21.9851ZM28.4034 15.0196C27.0746 14.3667 25.5797 14 23.9992 14C21.6837 14 19.552 14.787 17.8569 16.1081C19.3873 18.0922 21.4286 19.7104 23.8023 20.7897C25.0691 18.6786 26.6194 16.7399 28.4034 15.0196ZM16.7429 17.1191C15.0691 18.8837 14.0321 21.2583 14 23.8748C15.445 23.5067 16.964 23.3105 18.5304 23.3105C19.8203 23.3105 21.0779 23.4435 22.2885 23.696C22.5296 23.1555 22.7882 22.6236 23.0637 22.1011C20.558 20.9397 18.3907 19.2237 16.7429 17.1191Z" fill="white"/>
</g>
<defs>
<filter id="filter0_b_269_33622" x="-38" y="-38" width="124" height="124" filterUnits="userSpaceOnUse" color-interpolation-filters="sRGB">
<feFlood flood-opacity="0" result="BackgroundImageFix"/>
<feGaussianBlur in="BackgroundImageFix" stdDeviation="19"/>
<feComposite in2="SourceAlpha" operator="in" result="effect1_backgroundBlur_269_33622"/>
<feBlend mode="normal" in="SourceGraphic" in2="effect1_backgroundBlur_269_33622" result="shape"/>
</filter>
</defs>
</svg>
